<svg width="20" height="20" viewBox="0 0 20 20" fill="none" xmlns="http://www.w3.org/2000/svg">
<path d="M9.99967 1.66699C6.33301 1.66699 3.33301 4.66699 3.33301 8.33366C3.33301 12.8337 9.16634 17.917 9.41634 18.167C9.58301 18.2503 9.83301 18.3337 9.99967 18.3337C10.1663 18.3337 10.4163 18.2503 10.583 18.167C10.833 17.917 16.6663 12.8337 16.6663 8.33366C16.6663 4.66699 13.6663 1.66699 9.99967 1.66699ZM9.99967 16.417C8.24967 14.7503 4.99967 11.167 4.99967 8.33366C4.99967 5.58366 7.24967 3.33366 9.99967 3.33366C12.7497 3.33366 14.9997 5.58366 14.9997 8.33366C14.9997 11.0837 11.7497 14.7503 9.99967 16.417ZM9.99967 5.00033C8.16634 5.00033 6.66634 6.50033 6.66634 8.33366C6.66634 10.167 8.16634 11.667 9.99967 11.667C11.833 11.667 13.333 10.167 13.333 8.33366C13.333 6.50033 11.833 5.00033 9.99967 5.00033ZM9.99967 10.0003C9.08301 10.0003 8.33301 9.25033 8.33301 8.33366C8.33301 7.41699 9.08301 6.66699 9.99967 6.66699C10.9163 6.66699 11.6663 7.41699 11.6663 8.33366C11.6663 9.25033 10.9163 10.0003 9.99967 10.0003Z" fill="#FEF6E8"/>
</svg>
